<?xml version="1.0" encoding="utf-8" standalone="no"?>
<!DOCTYPE svg PUBLIC "-//W3C//DTD SVG 1.1//EN"
  "http://www.w3.org/Graphics/SVG/1.1/DTD/svg11.dtd">
<svg height="408pt" version="1.1" viewBox="0 0 565 408" width="565pt" xmlns="http://www.w3.org/2000/svg" xmlns:xlink="http://www.w3.org/1999/xlink">
 <metadata>
  <rdf:RDF xmlns:cc="http://creativecommons.org/ns#" xmlns:dc="http://purl.org/dc/elements/1.1/" xmlns:rdf="http://www.w3.org/1999/02/22-rdf-syntax-ns#">
   <cc:Work>
    <dc:type rdf:resource="http://purl.org/dc/dcmitype/StillImage"/>
    <dc:date>2024-04-06T17:03:30.024738</dc:date>
    <dc:format>image/svg+xml</dc:format>
    <dc:creator>
     <cc:Agent>
      <dc:title>Matplotlib v3.4.3, https://matplotlib.org/</dc:title>
     </cc:Agent>
    </dc:creator>
   </cc:Work>
  </rdf:RDF>
 </metadata>
 <defs>
  <style type="text/css">*{stroke-linecap:butt;stroke-linejoin:round;}</style>
 </defs>
 <g id="figure_1">
  <g id="patch_1">
   <path d="M 0 408 
L 565 408 
L 565 0 
L 0 0 
z
" style="fill:#ffffff;"/>
  </g>
  <g id="axes_1">
   <g id="patch_2">
    <path d="M 30.525 380.521875 
L 554.2 380.521875 
L 554.2 10.8 
L 30.525 10.8 
z
" style="fill:#ffffff;"/>
   </g>
   <g id="PathCollection_1">
    <defs>
     <path d="M 0 3 
C 0.795609 3 1.55874 2.683901 2.12132 2.12132 
C 2.683901 1.55874 3 0.795609 3 0 
C 3 -0.795609 2.683901 -1.55874 2.12132 -2.12132 
C 1.55874 -2.683901 0.795609 -3 0 -3 
C -0.795609 -3 -1.55874 -2.683901 -2.12132 -2.12132 
C -2.683901 -1.55874 -3 -0.795609 -3 0 
C -3 0.795609 -2.683901 1.55874 -2.12132 2.12132 
C -1.55874 2.683901 -0.795609 3 0 3 
z
" id="m4f82cc18fd" style="stroke:#1f77b4;"/>
    </defs>
    <g clip-path="url(#p622998d202)">
     <use style="fill:#1f77b4;stroke:#1f77b4;" x="169.742567" xlink:href="#m4f82cc18fd" y="330.761997"/>
     <use style="fill:#1f77b4;stroke:#1f77b4;" x="335.784436" xlink:href="#m4f82cc18fd" y="75.922933"/>
     <use style="fill:#1f77b4;stroke:#1f77b4;" x="340.112674" xlink:href="#m4f82cc18fd" y="108.150164"/>
     <use style="fill:#1f77b4;stroke:#1f77b4;" x="316.196178" xlink:href="#m4f82cc18fd" y="339.338725"/>
     <use style="fill:#1f77b4;stroke:#1f77b4;" x="406.229754" xlink:href="#m4f82cc18fd" y="84.546571"/>
     <use style="fill:#1f77b4;stroke:#1f77b4;" x="497.316143" xlink:href="#m4f82cc18fd" y="38.30104"/>
     <use style="fill:#1f77b4;stroke:#1f77b4;" x="501.721576" xlink:href="#m4f82cc18fd" y="49.293638"/>
     <use style="fill:#1f77b4;stroke:#1f77b4;" x="484.018844" xlink:href="#m4f82cc18fd" y="82.083791"/>
     <use style="fill:#1f77b4;stroke:#1f77b4;" x="202.451261" xlink:href="#m4f82cc18fd" y="172.565536"/>
     <use style="fill:#1f77b4;stroke:#1f77b4;" x="495.312403" xlink:href="#m4f82cc18fd" y="52.327157"/>
     <use style="fill:#1f77b4;stroke:#1f77b4;" x="205.697713" xlink:href="#m4f82cc18fd" y="229.905303"/>
     <use style="fill:#1f77b4;stroke:#1f77b4;" x="295.316014" xlink:href="#m4f82cc18fd" y="160.900561"/>
     <use style="fill:#1f77b4;stroke:#1f77b4;" x="356.598343" xlink:href="#m4f82cc18fd" y="88.205558"/>
     <use style="fill:#1f77b4;stroke:#1f77b4;" x="404.710653" xlink:href="#m4f82cc18fd" y="276.815393"/>
     <use style="fill:#1f77b4;stroke:#1f77b4;" x="374.681629" xlink:href="#m4f82cc18fd" y="107.454331"/>
     <use style="fill:#1f77b4;stroke:#1f77b4;" x="389.745933" xlink:href="#m4f82cc18fd" y="102.646047"/>
     <use style="fill:#1f77b4;stroke:#1f77b4;" x="190.157309" xlink:href="#m4f82cc18fd" y="264.564041"/>
     <use style="fill:#1f77b4;stroke:#1f77b4;" x="94.571019" xlink:href="#m4f82cc18fd" y="285.790857"/>
     <use style="fill:#1f77b4;stroke:#1f77b4;" x="221.609964" xlink:href="#m4f82cc18fd" y="206.48935"/>
     <use style="fill:#1f77b4;stroke:#1f77b4;" x="237.7161" xlink:href="#m4f82cc18fd" y="279.145261"/>
     <use style="fill:#1f77b4;stroke:#1f77b4;" x="502.210527" xlink:href="#m4f82cc18fd" y="42.851319"/>
     <use style="fill:#1f77b4;stroke:#1f77b4;" x="140.120043" xlink:href="#m4f82cc18fd" y="323.623845"/>
     <use style="fill:#1f77b4;stroke:#1f77b4;" x="221.087579" xlink:href="#m4f82cc18fd" y="277.417406"/>
     <use style="fill:#1f77b4;stroke:#1f77b4;" x="409.007877" xlink:href="#m4f82cc18fd" y="59.269851"/>
     <use style="fill:#1f77b4;stroke:#1f77b4;" x="319.245864" xlink:href="#m4f82cc18fd" y="102.990055"/>
     <use style="fill:#1f77b4;stroke:#1f77b4;" x="351.005224" xlink:href="#m4f82cc18fd" y="103.552976"/>
     <use style="fill:#1f77b4;stroke:#1f77b4;" x="170.826814" xlink:href="#m4f82cc18fd" y="164.043537"/>
     <use style="fill:#1f77b4;stroke:#1f77b4;" x="54.328409" xlink:href="#m4f82cc18fd" y="310.168467"/>
     <use style="fill:#1f77b4;stroke:#1f77b4;" x="290.641307" xlink:href="#m4f82cc18fd" y="240.897901"/>
     <use style="fill:#1f77b4;stroke:#1f77b4;" x="380.373024" xlink:href="#m4f82cc18fd" y="57.479449"/>
     <use style="fill:#1f77b4;stroke:#1f77b4;" x="212.068208" xlink:href="#m4f82cc18fd" y="295.579429"/>
     <use style="fill:#1f77b4;stroke:#1f77b4;" x="418.589404" xlink:href="#m4f82cc18fd" y="81.200318"/>
     <use style="fill:#1f77b4;stroke:#1f77b4;" x="373.48084" xlink:href="#m4f82cc18fd" y="61.458988"/>
     <use style="fill:#1f77b4;stroke:#1f77b4;" x="459.56174" xlink:href="#m4f82cc18fd" y="75.430377"/>
     <use style="fill:#1f77b4;stroke:#1f77b4;" x="499.538717" xlink:href="#m4f82cc18fd" y="60.997706"/>
     <use style="fill:#1f77b4;stroke:#1f77b4;" x="239.515669" xlink:href="#m4f82cc18fd" y="245.049444"/>
     <use style="fill:#1f77b4;stroke:#1f77b4;" x="337.141725" xlink:href="#m4f82cc18fd" y="108.666175"/>
     <use style="fill:#1f77b4;stroke:#1f77b4;" x="349.239928" xlink:href="#m4f82cc18fd" y="87.095352"/>
     <use style="fill:#1f77b4;stroke:#1f77b4;" x="330.104831" xlink:href="#m4f82cc18fd" y="115.679234"/>
     <use style="fill:#1f77b4;stroke:#1f77b4;" x="332.496528" xlink:href="#m4f82cc18fd" y="111.457326"/>
     <use style="fill:#1f77b4;stroke:#1f77b4;" x="401.619875" xlink:href="#m4f82cc18fd" y="270.161979"/>
     <use style="fill:#1f77b4;stroke:#1f77b4;" x="131.29555" xlink:href="#m4f82cc18fd" y="219.64763"/>
     <use style="fill:#1f77b4;stroke:#1f77b4;" x="138.118649" xlink:href="#m4f82cc18fd" y="259.466478"/>
     <use style="fill:#1f77b4;stroke:#1f77b4;" x="493.978602" xlink:href="#m4f82cc18fd" y="53.327906"/>
     <use style="fill:#1f77b4;stroke:#1f77b4;" x="486.074188" xlink:href="#m4f82cc18fd" y="42.820046"/>
     <use style="fill:#1f77b4;stroke:#1f77b4;" x="409.250653" xlink:href="#m4f82cc18fd" y="229.850575"/>
     <use style="fill:#1f77b4;stroke:#1f77b4;" x="146.009674" xlink:href="#m4f82cc18fd" y="208.639396"/>
     <use style="fill:#1f77b4;stroke:#1f77b4;" x="491.064093" xlink:href="#m4f82cc18fd" y="52.600799"/>
     <use style="fill:#1f77b4;stroke:#1f77b4;" x="198.14842" xlink:href="#m4f82cc18fd" y="204.151664"/>
     <use style="fill:#1f77b4;stroke:#1f77b4;" x="476.778443" xlink:href="#m4f82cc18fd" y="51.998787"/>
     <use style="fill:#1f77b4;stroke:#1f77b4;" x="323.357502" xlink:href="#m4f82cc18fd" y="124.115232"/>
     <use style="fill:#1f77b4;stroke:#1f77b4;" x="166.681936" xlink:href="#m4f82cc18fd" y="235.542332"/>
     <use style="fill:#1f77b4;stroke:#1f77b4;" x="121.93164" xlink:href="#m4f82cc18fd" y="310.747025"/>
     <use style="fill:#1f77b4;stroke:#1f77b4;" x="188.987453" xlink:href="#m4f82cc18fd" y="197.16206"/>
     <use style="fill:#1f77b4;stroke:#1f77b4;" x="288.485586" xlink:href="#m4f82cc18fd" y="124.592151"/>
     <use style="fill:#1f77b4;stroke:#1f77b4;" x="510.446903" xlink:href="#m4f82cc18fd" y="30.693787"/>
     <use style="fill:#1f77b4;stroke:#1f77b4;" x="437.751407" xlink:href="#m4f82cc18fd" y="100.042537"/>
     <use style="fill:#1f77b4;stroke:#1f77b4;" x="501.85958" xlink:href="#m4f82cc18fd" y="34.219862"/>
     <use style="fill:#1f77b4;stroke:#1f77b4;" x="254.533265" xlink:href="#m4f82cc18fd" y="167.593067"/>
     <use style="fill:#1f77b4;stroke:#1f77b4;" x="288.286501" xlink:href="#m4f82cc18fd" y="121.058258"/>
     <use style="fill:#1f77b4;stroke:#1f77b4;" x="397.377473" xlink:href="#m4f82cc18fd" y="118.603296"/>
     <use style="fill:#1f77b4;stroke:#1f77b4;" x="309.725906" xlink:href="#m4f82cc18fd" y="207.881016"/>
     <use style="fill:#1f77b4;stroke:#1f77b4;" x="512.620841" xlink:href="#m4f82cc18fd" y="56.674159"/>
     <use style="fill:#1f77b4;stroke:#1f77b4;" x="469.79561" xlink:href="#m4f82cc18fd" y="42.132031"/>
     <use style="fill:#1f77b4;stroke:#1f77b4;" x="480.156844" xlink:href="#m4f82cc18fd" y="43.687882"/>
     <use style="fill:#1f77b4;stroke:#1f77b4;" x="355.037446" xlink:href="#m4f82cc18fd" y="106.070484"/>
     <use style="fill:#1f77b4;stroke:#1f77b4;" x="489.583177" xlink:href="#m4f82cc18fd" y="27.60554"/>
     <use style="fill:#1f77b4;stroke:#1f77b4;" x="310.715274" xlink:href="#m4f82cc18fd" y="106.320671"/>
     <use style="fill:#1f77b4;stroke:#1f77b4;" x="207.087509" xlink:href="#m4f82cc18fd" y="250.373739"/>
     <use style="fill:#1f77b4;stroke:#1f77b4;" x="214.898244" xlink:href="#m4f82cc18fd" y="147.27318"/>
     <use style="fill:#1f77b4;stroke:#1f77b4;" x="461.610613" xlink:href="#m4f82cc18fd" y="58.722566"/>
     <use style="fill:#1f77b4;stroke:#1f77b4;" x="526.498108" xlink:href="#m4f82cc18fd" y="66.814557"/>
     <use style="fill:#1f77b4;stroke:#1f77b4;" x="387.835772" xlink:href="#m4f82cc18fd" y="110.558216"/>
     <use style="fill:#1f77b4;stroke:#1f77b4;" x="213.51893" xlink:href="#m4f82cc18fd" y="340.425476"/>
     <use style="fill:#1f77b4;stroke:#1f77b4;" x="91.184042" xlink:href="#m4f82cc18fd" y="316.298053"/>
     <use style="fill:#1f77b4;stroke:#1f77b4;" x="400.886691" xlink:href="#m4f82cc18fd" y="95.242071"/>
     <use style="fill:#1f77b4;stroke:#1f77b4;" x="176.133098" xlink:href="#m4f82cc18fd" y="208.678487"/>
     <use style="fill:#1f77b4;stroke:#1f77b4;" x="146.811865" xlink:href="#m4f82cc18fd" y="295.774888"/>
     <use style="fill:#1f77b4;stroke:#1f77b4;" x="403.842508" xlink:href="#m4f82cc18fd" y="92.982569"/>
     <use style="fill:#1f77b4;stroke:#1f77b4;" x="175.940405" xlink:href="#m4f82cc18fd" y="247.582589"/>
     <use style="fill:#1f77b4;stroke:#1f77b4;" x="226.281233" xlink:href="#m4f82cc18fd" y="171.768065"/>
     <use style="fill:#1f77b4;stroke:#1f77b4;" x="392.091952" xlink:href="#m4f82cc18fd" y="104.24099"/>
     <use style="fill:#1f77b4;stroke:#1f77b4;" x="400.275559" xlink:href="#m4f82cc18fd" y="77.705516"/>
     <use style="fill:#1f77b4;stroke:#1f77b4;" x="275.948079" xlink:href="#m4f82cc18fd" y="151.135444"/>
     <use style="fill:#1f77b4;stroke:#1f77b4;" x="376.568641" xlink:href="#m4f82cc18fd" y="90.621427"/>
     <use style="fill:#1f77b4;stroke:#1f77b4;" x="295.268835" xlink:href="#m4f82cc18fd" y="117.039627"/>
     <use style="fill:#1f77b4;stroke:#1f77b4;" x="154.284959" xlink:href="#m4f82cc18fd" y="344.412833"/>
     <use style="fill:#1f77b4;stroke:#1f77b4;" x="166.813031" xlink:href="#m4f82cc18fd" y="188.147505"/>
     <use style="fill:#1f77b4;stroke:#1f77b4;" x="316.460693" xlink:href="#m4f82cc18fd" y="259.787031"/>
     <use style="fill:#1f77b4;stroke:#1f77b4;" x="180.142046" xlink:href="#m4f82cc18fd" y="174.731219"/>
     <use style="fill:#1f77b4;stroke:#1f77b4;" x="503.413757" xlink:href="#m4f82cc18fd" y="49.817467"/>
     <use style="fill:#1f77b4;stroke:#1f77b4;" x="468.569616" xlink:href="#m4f82cc18fd" y="46.361757"/>
     <use style="fill:#1f77b4;stroke:#1f77b4;" x="265.042221" xlink:href="#m4f82cc18fd" y="103.474792"/>
     <use style="fill:#1f77b4;stroke:#1f77b4;" x="128.133828" xlink:href="#m4f82cc18fd" y="228.818553"/>
     <use style="fill:#1f77b4;stroke:#1f77b4;" x="236.442056" xlink:href="#m4f82cc18fd" y="307.064583"/>
     <use style="fill:#1f77b4;stroke:#1f77b4;" x="530.396591" xlink:href="#m4f82cc18fd" y="46.424304"/>
     <use style="fill:#1f77b4;stroke:#1f77b4;" x="457.456734" xlink:href="#m4f82cc18fd" y="82.044699"/>
     <use style="fill:#1f77b4;stroke:#1f77b4;" x="260.120797" xlink:href="#m4f82cc18fd" y="161.455663"/>
     <use style="fill:#1f77b4;stroke:#1f77b4;" x="381.923512" xlink:href="#m4f82cc18fd" y="82.849989"/>
     <use style="fill:#1f77b4;stroke:#1f77b4;" x="303.382768" xlink:href="#m4f82cc18fd" y="112.442438"/>
     <use style="fill:#1f77b4;stroke:#1f77b4;" x="356.135733" xlink:href="#m4f82cc18fd" y="115.030311"/>
     <use style="fill:#1f77b4;stroke:#1f77b4;" x="278.717129" xlink:href="#m4f82cc18fd" y="112.942812"/>
     <use style="fill:#1f77b4;stroke:#1f77b4;" x="423.310339" xlink:href="#m4f82cc18fd" y="82.646712"/>
     <use style="fill:#1f77b4;stroke:#1f77b4;" x="449.699615" xlink:href="#m4f82cc18fd" y="62.827199"/>
     <use style="fill:#1f77b4;stroke:#1f77b4;" x="444.250161" xlink:href="#m4f82cc18fd" y="57.760909"/>
     <use style="fill:#1f77b4;stroke:#1f77b4;" x="359.31972" xlink:href="#m4f82cc18fd" y="75.774384"/>
     <use style="fill:#1f77b4;stroke:#1f77b4;" x="390.837915" xlink:href="#m4f82cc18fd" y="106.781953"/>
     <use style="fill:#1f77b4;stroke:#1f77b4;" x="158.578834" xlink:href="#m4f82cc18fd" y="311.888504"/>
     <use style="fill:#1f77b4;stroke:#1f77b4;" x="215.20745" xlink:href="#m4f82cc18fd" y="161.103838"/>
     <use style="fill:#1f77b4;stroke:#1f77b4;" x="454.692311" xlink:href="#m4f82cc18fd" y="104.428631"/>
     <use style="fill:#1f77b4;stroke:#1f77b4;" x="221.539882" xlink:href="#m4f82cc18fd" y="180.383885"/>
     <use style="fill:#1f77b4;stroke:#1f77b4;" x="381.711077" xlink:href="#m4f82cc18fd" y="94.851154"/>
     <use style="fill:#1f77b4;stroke:#1f77b4;" x="158.520503" xlink:href="#m4f82cc18fd" y="340.613116"/>
     <use style="fill:#1f77b4;stroke:#1f77b4;" x="526.179367" xlink:href="#m4f82cc18fd" y="48.175614"/>
     <use style="fill:#1f77b4;stroke:#1f77b4;" x="441.104911" xlink:href="#m4f82cc18fd" y="89.683226"/>
     <use style="fill:#1f77b4;stroke:#1f77b4;" x="470.673396" xlink:href="#m4f82cc18fd" y="64.171955"/>
     <use style="fill:#1f77b4;stroke:#1f77b4;" x="165.057962" xlink:href="#m4f82cc18fd" y="296.90073"/>
     <use style="fill:#1f77b4;stroke:#1f77b4;" x="376.72502" xlink:href="#m4f82cc18fd" y="287.675079"/>
     <use style="fill:#1f77b4;stroke:#1f77b4;" x="480.96172" xlink:href="#m4f82cc18fd" y="40.599635"/>
     <use style="fill:#1f77b4;stroke:#1f77b4;" x="298.806046" xlink:href="#m4f82cc18fd" y="107.407421"/>
     <use style="fill:#1f77b4;stroke:#1f77b4;" x="259.995441" xlink:href="#m4f82cc18fd" y="215.613362"/>
     <use style="fill:#1f77b4;stroke:#1f77b4;" x="310.593596" xlink:href="#m4f82cc18fd" y="363.716335"/>
     <use style="fill:#1f77b4;stroke:#1f77b4;" x="495.767128" xlink:href="#m4f82cc18fd" y="41.045281"/>
     <use style="fill:#1f77b4;stroke:#1f77b4;" x="505.166142" xlink:href="#m4f82cc18fd" y="34.65769"/>
     <use style="fill:#1f77b4;stroke:#1f77b4;" x="303.640265" xlink:href="#m4f82cc18fd" y="93.748767"/>
     <use style="fill:#1f77b4;stroke:#1f77b4;" x="480.633418" xlink:href="#m4f82cc18fd" y="60.466058"/>
     <use style="fill:#1f77b4;stroke:#1f77b4;" x="181.489591" xlink:href="#m4f82cc18fd" y="262.828368"/>
     <use style="fill:#1f77b4;stroke:#1f77b4;" x="356.74751" xlink:href="#m4f82cc18fd" y="121.324081"/>
     <use style="fill:#1f77b4;stroke:#1f77b4;" x="160.671541" xlink:href="#m4f82cc18fd" y="216.676658"/>
     <use style="fill:#1f77b4;stroke:#1f77b4;" x="437.749186" xlink:href="#m4f82cc18fd" y="127.555305"/>
     <use style="fill:#1f77b4;stroke:#1f77b4;" x="352.130675" xlink:href="#m4f82cc18fd" y="95.468803"/>
     <use style="fill:#1f77b4;stroke:#1f77b4;" x="368.307771" xlink:href="#m4f82cc18fd" y="112.246979"/>
     <use style="fill:#1f77b4;stroke:#1f77b4;" x="177.148596" xlink:href="#m4f82cc18fd" y="270.451258"/>
     <use style="fill:#1f77b4;stroke:#1f77b4;" x="493.968022" xlink:href="#m4f82cc18fd" y="52.452251"/>
     <use style="fill:#1f77b4;stroke:#1f77b4;" x="517.623073" xlink:href="#m4f82cc18fd" y="61.701357"/>
     <use style="fill:#1f77b4;stroke:#1f77b4;" x="389.147521" xlink:href="#m4f82cc18fd" y="76.227848"/>
     <use style="fill:#1f77b4;stroke:#1f77b4;" x="395.861398" xlink:href="#m4f82cc18fd" y="96.844833"/>
     <use style="fill:#1f77b4;stroke:#1f77b4;" x="254.133916" xlink:href="#m4f82cc18fd" y="92.920022"/>
     <use style="fill:#1f77b4;stroke:#1f77b4;" x="273.833621" xlink:href="#m4f82cc18fd" y="99.385796"/>
     <use style="fill:#1f77b4;stroke:#1f77b4;" x="247.873352" xlink:href="#m4f82cc18fd" y="183.229764"/>
     <use style="fill:#1f77b4;stroke:#1f77b4;" x="194.159549" xlink:href="#m4f82cc18fd" y="342.051692"/>
     <use style="fill:#1f77b4;stroke:#1f77b4;" x="102.672473" xlink:href="#m4f82cc18fd" y="333.428054"/>
    </g>
   </g>
   <g id="matplotlib.axis_1">
    <g id="xtick_1">
     <g id="line2d_1">
      <defs>
       <path d="M 0 0 
L 0 3.5 
" id="m379885ca5c" style="stroke:#000000;stroke-width:0.8;"/>
      </defs>
      <g>
       <use style="stroke:#000000;stroke-width:0.8;" x="172.108588" xlink:href="#m379885ca5c" y="380.521875"/>
      </g>
     </g>
     <g id="text_1">
      <!-- $\mathdefault{10^{3}}$ -->
      <g transform="translate(163.308588 395.120313)scale(0.1 -0.1)">
       <defs>
        <path d="M 794 531 
L 1825 531 
L 1825 4091 
L 703 3866 
L 703 4441 
L 1819 4666 
L 2450 4666 
L 2450 531 
L 3481 531 
L 3481 0 
L 794 0 
L 794 531 
z
" id="DejaVuSans-31" transform="scale(0.015625)"/>
        <path d="M 2034 4250 
Q 1547 4250 1301 3770 
Q 1056 3291 1056 2328 
Q 1056 1369 1301 889 
Q 1547 409 2034 409 
Q 2525 409 2770 889 
Q 3016 1369 3016 2328 
Q 3016 3291 2770 3770 
Q 2525 4250 2034 4250 
z
M 2034 4750 
Q 2819 4750 3233 4129 
Q 3647 3509 3647 2328 
Q 3647 1150 3233 529 
Q 2819 -91 2034 -91 
Q 1250 -91 836 529 
Q 422 1150 422 2328 
Q 422 3509 836 4129 
Q 1250 4750 2034 4750 
z
" id="DejaVuSans-30" transform="scale(0.015625)"/>
        <path d="M 2597 2516 
Q 3050 2419 3304 2112 
Q 3559 1806 3559 1356 
Q 3559 666 3084 287 
Q 2609 -91 1734 -91 
Q 1441 -91 1130 -33 
Q 819 25 488 141 
L 488 750 
Q 750 597 1062 519 
Q 1375 441 1716 441 
Q 2309 441 2620 675 
Q 2931 909 2931 1356 
Q 2931 1769 2642 2001 
Q 2353 2234 1838 2234 
L 1294 2234 
L 1294 2753 
L 1863 2753 
Q 2328 2753 2575 2939 
Q 2822 3125 2822 3475 
Q 2822 3834 2567 4026 
Q 2313 4219 1838 4219 
Q 1578 4219 1281 4162 
Q 984 4106 628 3988 
L 628 4550 
Q 988 4650 1302 4700 
Q 1616 4750 1894 4750 
Q 2613 4750 3031 4423 
Q 3450 4097 3450 3541 
Q 3450 3153 3228 2886 
Q 3006 2619 2597 2516 
z
" id="DejaVuSans-33" transform="scale(0.015625)"/>
       </defs>
       <use transform="translate(0 0.765625)" xlink:href="#DejaVuSans-31"/>
       <use transform="translate(63.623047 0.765625)" xlink:href="#DejaVuSans-30"/>
       <use transform="translate(128.203125 39.046875)scale(0.7)" xlink:href="#DejaVuSans-33"/>
      </g>
     </g>
    </g>
    <g id="xtick_2">
     <g id="line2d_2">
      <g>
       <use style="stroke:#000000;stroke-width:0.8;" x="383.693855" xlink:href="#m379885ca5c" y="380.521875"/>
      </g>
     </g>
     <g id="text_2">
      <!-- $\mathdefault{10^{4}}$ -->
      <g transform="translate(374.893855 395.120313)scale(0.1 -0.1)">
       <defs>
        <path d="M 2419 4116 
L 825 1625 
L 2419 1625 
L 2419 4116 
z
M 2253 4666 
L 3047 4666 
L 3047 1625 
L 3713 1625 
L 3713 1100 
L 3047 1100 
L 3047 0 
L 2419 0 
L 2419 1100 
L 313 1100 
L 313 1709 
L 2253 4666 
z
" id="DejaVuSans-34" transform="scale(0.015625)"/>
       </defs>
       <use transform="translate(0 0.684375)" xlink:href="#DejaVuSans-31"/>
       <use transform="translate(63.623047 0.684375)" xlink:href="#DejaVuSans-30"/>
       <use transform="translate(128.203125 38.965625)scale(0.7)" xlink:href="#DejaVuSans-34"/>
      </g>
     </g>
    </g>
    <g id="xtick_3">
     <g id="line2d_3">
      <defs>
       <path d="M 0 0 
L 0 2 
" id="mea5821a6b3" style="stroke:#000000;stroke-width:0.6;"/>
      </defs>
      <g>
       <use style="stroke:#000000;stroke-width:0.6;" x="61.475149" xlink:href="#mea5821a6b3" y="380.521875"/>
      </g>
     </g>
    </g>
    <g id="xtick_4">
     <g id="line2d_4">
      <g>
       <use style="stroke:#000000;stroke-width:0.6;" x="87.910345" xlink:href="#mea5821a6b3" y="380.521875"/>
      </g>
     </g>
    </g>
    <g id="xtick_5">
     <g id="line2d_5">
      <g>
       <use style="stroke:#000000;stroke-width:0.6;" x="108.415076" xlink:href="#mea5821a6b3" y="380.521875"/>
      </g>
     </g>
    </g>
    <g id="xtick_6">
     <g id="line2d_6">
      <g>
       <use style="stroke:#000000;stroke-width:0.6;" x="125.168661" xlink:href="#mea5821a6b3" y="380.521875"/>
      </g>
     </g>
    </g>
    <g id="xtick_7">
     <g id="line2d_7">
      <g>
       <use style="stroke:#000000;stroke-width:0.6;" x="139.333615" xlink:href="#mea5821a6b3" y="380.521875"/>
      </g>
     </g>
    </g>
    <g id="xtick_8">
     <g id="line2d_8">
      <g>
       <use style="stroke:#000000;stroke-width:0.6;" x="151.603857" xlink:href="#mea5821a6b3" y="380.521875"/>
      </g>
     </g>
    </g>
    <g id="xtick_9">
     <g id="line2d_9">
      <g>
       <use style="stroke:#000000;stroke-width:0.6;" x="162.426977" xlink:href="#mea5821a6b3" y="380.521875"/>
      </g>
     </g>
    </g>
    <g id="xtick_10">
     <g id="line2d_10">
      <g>
       <use style="stroke:#000000;stroke-width:0.6;" x="235.8021" xlink:href="#mea5821a6b3" y="380.521875"/>
      </g>
     </g>
    </g>
    <g id="xtick_11">
     <g id="line2d_11">
      <g>
       <use style="stroke:#000000;stroke-width:0.6;" x="273.060416" xlink:href="#mea5821a6b3" y="380.521875"/>
      </g>
     </g>
    </g>
    <g id="xtick_12">
     <g id="line2d_12">
      <g>
       <use style="stroke:#000000;stroke-width:0.6;" x="299.495612" xlink:href="#mea5821a6b3" y="380.521875"/>
      </g>
     </g>
    </g>
    <g id="xtick_13">
     <g id="line2d_13">
      <g>
       <use style="stroke:#000000;stroke-width:0.6;" x="320.000343" xlink:href="#mea5821a6b3" y="380.521875"/>
      </g>
     </g>
    </g>
    <g id="xtick_14">
     <g id="line2d_14">
      <g>
       <use style="stroke:#000000;stroke-width:0.6;" x="336.753928" xlink:href="#mea5821a6b3" y="380.521875"/>
      </g>
     </g>
    </g>
    <g id="xtick_15">
     <g id="line2d_15">
      <g>
       <use style="stroke:#000000;stroke-width:0.6;" x="350.918883" xlink:href="#mea5821a6b3" y="380.521875"/>
      </g>
     </g>
    </g>
    <g id="xtick_16">
     <g id="line2d_16">
      <g>
       <use style="stroke:#000000;stroke-width:0.6;" x="363.189124" xlink:href="#mea5821a6b3" y="380.521875"/>
      </g>
     </g>
    </g>
    <g id="xtick_17">
     <g id="line2d_17">
      <g>
       <use style="stroke:#000000;stroke-width:0.6;" x="374.012244" xlink:href="#mea5821a6b3" y="380.521875"/>
      </g>
     </g>
    </g>
    <g id="xtick_18">
     <g id="line2d_18">
      <g>
       <use style="stroke:#000000;stroke-width:0.6;" x="447.387367" xlink:href="#mea5821a6b3" y="380.521875"/>
      </g>
     </g>
    </g>
    <g id="xtick_19">
     <g id="line2d_19">
      <g>
       <use style="stroke:#000000;stroke-width:0.6;" x="484.645683" xlink:href="#mea5821a6b3" y="380.521875"/>
      </g>
     </g>
    </g>
    <g id="xtick_20">
     <g id="line2d_20">
      <g>
       <use style="stroke:#000000;stroke-width:0.6;" x="511.080879" xlink:href="#mea5821a6b3" y="380.521875"/>
      </g>
     </g>
    </g>
    <g id="xtick_21">
     <g id="line2d_21">
      <g>
       <use style="stroke:#000000;stroke-width:0.6;" x="531.58561" xlink:href="#mea5821a6b3" y="380.521875"/>
      </g>
     </g>
    </g>
    <g id="xtick_22">
     <g id="line2d_22">
      <g>
       <use style="stroke:#000000;stroke-width:0.6;" x="548.339196" xlink:href="#mea5821a6b3" y="380.521875"/>
      </g>
     </g>
    </g>
   </g>
   <g id="matplotlib.axis_2">
    <g id="ytick_1">
     <g id="line2d_23">
      <defs>
       <path d="M 0 0 
L -3.5 0 
" id="m13655eb039" style="stroke:#000000;stroke-width:0.8;"/>
      </defs>
      <g>
       <use style="stroke:#000000;stroke-width:0.8;" x="30.525" xlink:href="#m13655eb039" y="360.690634"/>
      </g>
     </g>
     <g id="text_3">
      <!-- 40 -->
      <g transform="translate(10.8 364.489853)scale(0.1 -0.1)">
       <use xlink:href="#DejaVuSans-34"/>
       <use x="63.623047" xlink:href="#DejaVuSans-30"/>
      </g>
     </g>
    </g>
    <g id="ytick_2">
     <g id="line2d_24">
      <g>
       <use style="stroke:#000000;stroke-width:0.8;" x="30.525" xlink:href="#m13655eb039" y="282.507151"/>
      </g>
     </g>
     <g id="text_4">
      <!-- 50 -->
      <g transform="translate(10.8 286.30637)scale(0.1 -0.1)">
       <defs>
        <path d="M 691 4666 
L 3169 4666 
L 3169 4134 
L 1269 4134 
L 1269 2991 
Q 1406 3038 1543 3061 
Q 1681 3084 1819 3084 
Q 2600 3084 3056 2656 
Q 3513 2228 3513 1497 
Q 3513 744 3044 326 
Q 2575 -91 1722 -91 
Q 1428 -91 1123 -41 
Q 819 9 494 109 
L 494 744 
Q 775 591 1075 516 
Q 1375 441 1709 441 
Q 2250 441 2565 725 
Q 2881 1009 2881 1497 
Q 2881 1984 2565 2268 
Q 2250 2553 1709 2553 
Q 1456 2553 1204 2497 
Q 953 2441 691 2322 
L 691 4666 
z
" id="DejaVuSans-35" transform="scale(0.015625)"/>
       </defs>
       <use xlink:href="#DejaVuSans-35"/>
       <use x="63.623047" xlink:href="#DejaVuSans-30"/>
      </g>
     </g>
    </g>
    <g id="ytick_3">
     <g id="line2d_25">
      <g>
       <use style="stroke:#000000;stroke-width:0.8;" x="30.525" xlink:href="#m13655eb039" y="204.323667"/>
      </g>
     </g>
     <g id="text_5">
      <!-- 60 -->
      <g transform="translate(10.8 208.122886)scale(0.1 -0.1)">
       <defs>
        <path d="M 2113 2584 
Q 1688 2584 1439 2293 
Q 1191 2003 1191 1497 
Q 1191 994 1439 701 
Q 1688 409 2113 409 
Q 2538 409 2786 701 
Q 3034 994 3034 1497 
Q 3034 2003 2786 2293 
Q 2538 2584 2113 2584 
z
M 3366 4563 
L 3366 3988 
Q 3128 4100 2886 4159 
Q 2644 4219 2406 4219 
Q 1781 4219 1451 3797 
Q 1122 3375 1075 2522 
Q 1259 2794 1537 2939 
Q 1816 3084 2150 3084 
Q 2853 3084 3261 2657 
Q 3669 2231 3669 1497 
Q 3669 778 3244 343 
Q 2819 -91 2113 -91 
Q 1303 -91 875 529 
Q 447 1150 447 2328 
Q 447 3434 972 4092 
Q 1497 4750 2381 4750 
Q 2619 4750 2861 4703 
Q 3103 4656 3366 4563 
z
" id="DejaVuSans-36" transform="scale(0.015625)"/>
       </defs>
       <use xlink:href="#DejaVuSans-36"/>
       <use x="63.623047" xlink:href="#DejaVuSans-30"/>
      </g>
     </g>
    </g>
    <g id="ytick_4">
     <g id="line2d_26">
      <g>
       <use style="stroke:#000000;stroke-width:0.8;" x="30.525" xlink:href="#m13655eb039" y="126.140184"/>
      </g>
     </g>
     <g id="text_6">
      <!-- 70 -->
      <g transform="translate(10.8 129.939403)scale(0.1 -0.1)">
       <defs>
        <path d="M 525 4666 
L 3525 4666 
L 3525 4397 
L 1831 0 
L 1172 0 
L 2766 4134 
L 525 4134 
L 525 4666 
z
" id="DejaVuSans-37" transform="scale(0.015625)"/>
       </defs>
       <use xlink:href="#DejaVuSans-37"/>
       <use x="63.623047" xlink:href="#DejaVuSans-30"/>
      </g>
     </g>
    </g>
    <g id="ytick_5">
     <g id="line2d_27">
      <g>
       <use style="stroke:#000000;stroke-width:0.8;" x="30.525" xlink:href="#m13655eb039" y="47.956701"/>
      </g>
     </g>
     <g id="text_7">
      <!-- 80 -->
      <g transform="translate(10.8 51.755919)scale(0.1 -0.1)">
       <defs>
        <path d="M 2034 2216 
Q 1584 2216 1326 1975 
Q 1069 1734 1069 1313 
Q 1069 891 1326 650 
Q 1584 409 2034 409 
Q 2484 409 2743 651 
Q 3003 894 3003 1313 
Q 3003 1734 2745 1975 
Q 2488 2216 2034 2216 
z
M 1403 2484 
Q 997 2584 770 2862 
Q 544 3141 544 3541 
Q 544 4100 942 4425 
Q 1341 4750 2034 4750 
Q 2731 4750 3128 4425 
Q 3525 4100 3525 3541 
Q 3525 3141 3298 2862 
Q 3072 2584 2669 2484 
Q 3125 2378 3379 2068 
Q 3634 1759 3634 1313 
Q 3634 634 3220 271 
Q 2806 -91 2034 -91 
Q 1263 -91 848 271 
Q 434 634 434 1313 
Q 434 1759 690 2068 
Q 947 2378 1403 2484 
z
M 1172 3481 
Q 1172 3119 1398 2916 
Q 1625 2713 2034 2713 
Q 2441 2713 2670 2916 
Q 2900 3119 2900 3481 
Q 2900 3844 2670 4047 
Q 2441 4250 2034 4250 
Q 1625 4250 1398 4047 
Q 1172 3844 1172 3481 
z
" id="DejaVuSans-38" transform="scale(0.015625)"/>
       </defs>
       <use xlink:href="#DejaVuSans-38"/>
       <use x="63.623047" xlink:href="#DejaVuSans-30"/>
      </g>
     </g>
    </g>
   </g>
   <g id="patch_3">
    <path d="M 30.525 380.521875 
L 30.525 10.8 
" style="fill:none;stroke:#000000;stroke-linecap:square;stroke-linejoin:miter;stroke-width:0.8;"/>
   </g>
   <g id="patch_4">
    <path d="M 554.2 380.521875 
L 554.2 10.8 
" style="fill:none;stroke:#000000;stroke-linecap:square;stroke-linejoin:miter;stroke-width:0.8;"/>
   </g>
   <g id="patch_5">
    <path d="M 30.525 380.521875 
L 554.2 380.521875 
" style="fill:none;stroke:#000000;stroke-linecap:square;stroke-linejoin:miter;stroke-width:0.8;"/>
   </g>
   <g id="patch_6">
    <path d="M 30.525 10.8 
L 554.2 10.8 
" style="fill:none;stroke:#000000;stroke-linecap:square;stroke-linejoin:miter;stroke-width:0.8;"/>
   </g>
  </g>
 </g>
 <defs>
  <clipPath id="p622998d202">
   <rect height="369.721875" width="523.675" x="30.525" y="10.8"/>
  </clipPath>
 </defs>
</svg>
