<?xml version="1.0" encoding="utf-8" standalone="no"?>
<!DOCTYPE svg PUBLIC "-//W3C//DTD SVG 1.1//EN"
  "http://www.w3.org/Graphics/SVG/1.1/DTD/svg11.dtd">
<svg height="408pt" version="1.1" viewBox="0 0 565 408" width="565pt" xmlns="http://www.w3.org/2000/svg" xmlns:xlink="http://www.w3.org/1999/xlink">
 <metadata>
  <rdf:RDF xmlns:cc="http://creativecommons.org/ns#" xmlns:dc="http://purl.org/dc/elements/1.1/" xmlns:rdf="http://www.w3.org/1999/02/22-rdf-syntax-ns#">
   <cc:Work>
    <dc:type rdf:resource="http://purl.org/dc/dcmitype/StillImage"/>
    <dc:date>2024-04-06T17:06:36.759884</dc:date>
    <dc:format>image/svg+xml</dc:format>
    <dc:creator>
     <cc:Agent>
      <dc:title>Matplotlib v3.4.3, https://matplotlib.org/</dc:title>
     </cc:Agent>
    </dc:creator>
   </cc:Work>
  </rdf:RDF>
 </metadata>
 <defs>
  <style type="text/css">*{stroke-linecap:butt;stroke-linejoin:round;}</style>
 </defs>
 <g id="figure_1">
  <g id="patch_1">
   <path d="M 0 408 
L 565 408 
L 565 0 
L 0 0 
z
" style="fill:#ffffff;"/>
  </g>
  <g id="axes_1">
   <g id="patch_2">
    <path d="M 30.525 380.521875 
L 554.2 380.521875 
L 554.2 10.8 
L 30.525 10.8 
z
" style="fill:#ffffff;"/>
   </g>
   <g id="PathCollection_1">
    <defs>
     <path d="M 0 3 
C 0.795609 3 1.55874 2.683901 2.12132 2.12132 
C 2.683901 1.55874 3 0.795609 3 0 
C 3 -0.795609 2.683901 -1.55874 2.12132 -2.12132 
C 1.55874 -2.683901 0.795609 -3 0 -3 
C -0.795609 -3 -1.55874 -2.683901 -2.12132 -2.12132 
C -2.683901 -1.55874 -3 -0.795609 -3 0 
C -3 0.795609 -2.683901 1.55874 -2.12132 2.12132 
C -1.55874 2.683901 -0.795609 3 0 3 
z
" id="m6d9a14a241" style="stroke:#1f77b4;"/>
    </defs>
    <g clip-path="url(#pda27bc9d9a)">
     <use style="fill:#1f77b4;stroke:#1f77b4;" x="65.770922" xlink:href="#m6d9a14a241" y="330.761997"/>
     <use style="fill:#1f77b4;stroke:#1f77b4;" x="55.556397" xlink:href="#m6d9a14a241" y="75.922933"/>
     <use style="fill:#1f77b4;stroke:#1f77b4;" x="66.292055" xlink:href="#m6d9a14a241" y="108.150164"/>
     <use style="fill:#1f77b4;stroke:#1f77b4;" x="58.741039" xlink:href="#m6d9a14a241" y="339.338725"/>
     <use style="fill:#1f77b4;stroke:#1f77b4;" x="68.808265" xlink:href="#m6d9a14a241" y="84.546571"/>
     <use style="fill:#1f77b4;stroke:#1f77b4;" x="61.634566" xlink:href="#m6d9a14a241" y="38.30104"/>
     <use style="fill:#1f77b4;stroke:#1f77b4;" x="57.217063" xlink:href="#m6d9a14a241" y="49.293638"/>
     <use style="fill:#1f77b4;stroke:#1f77b4;" x="54.512193" xlink:href="#m6d9a14a241" y="82.083791"/>
     <use style="fill:#1f77b4;stroke:#1f77b4;" x="108.579109" xlink:href="#m6d9a14a241" y="172.565536"/>
     <use style="fill:#1f77b4;stroke:#1f77b4;" x="58.008694" xlink:href="#m6d9a14a241" y="52.327157"/>
     <use style="fill:#1f77b4;stroke:#1f77b4;" x="57.173204" xlink:href="#m6d9a14a241" y="229.905303"/>
     <use style="fill:#1f77b4;stroke:#1f77b4;" x="57.549022" xlink:href="#m6d9a14a241" y="160.900561"/>
     <use style="fill:#1f77b4;stroke:#1f77b4;" x="55.90002" xlink:href="#m6d9a14a241" y="88.205558"/>
     <use style="fill:#1f77b4;stroke:#1f77b4;" x="54.848192" xlink:href="#m6d9a14a241" y="276.815393"/>
     <use style="fill:#1f77b4;stroke:#1f77b4;" x="122.863972" xlink:href="#m6d9a14a241" y="107.454331"/>
     <use style="fill:#1f77b4;stroke:#1f77b4;" x="56.900429" xlink:href="#m6d9a14a241" y="102.646047"/>
     <use style="fill:#1f77b4;stroke:#1f77b4;" x="59.429145" xlink:href="#m6d9a14a241" y="264.564041"/>
     <use style="fill:#1f77b4;stroke:#1f77b4;" x="57.285927" xlink:href="#m6d9a14a241" y="285.790857"/>
     <use style="fill:#1f77b4;stroke:#1f77b4;" x="59.358972" xlink:href="#m6d9a14a241" y="206.48935"/>
     <use style="fill:#1f77b4;stroke:#1f77b4;" x="60.645992" xlink:href="#m6d9a14a241" y="279.145261"/>
     <use style="fill:#1f77b4;stroke:#1f77b4;" x="66.312609" xlink:href="#m6d9a14a241" y="42.851319"/>
     <use style="fill:#1f77b4;stroke:#1f77b4;" x="55.833886" xlink:href="#m6d9a14a241" y="323.623845"/>
     <use style="fill:#1f77b4;stroke:#1f77b4;" x="57.953299" xlink:href="#m6d9a14a241" y="277.417406"/>
     <use style="fill:#1f77b4;stroke:#1f77b4;" x="60.136319" xlink:href="#m6d9a14a241" y="59.269851"/>
     <use style="fill:#1f77b4;stroke:#1f77b4;" x="530.396591" xlink:href="#m6d9a14a241" y="102.990055"/>
     <use style="fill:#1f77b4;stroke:#1f77b4;" x="70.2257" xlink:href="#m6d9a14a241" y="103.552976"/>
     <use style="fill:#1f77b4;stroke:#1f77b4;" x="54.513055" xlink:href="#m6d9a14a241" y="164.043537"/>
     <use style="fill:#1f77b4;stroke:#1f77b4;" x="77.584073" xlink:href="#m6d9a14a241" y="310.168467"/>
     <use style="fill:#1f77b4;stroke:#1f77b4;" x="55.628642" xlink:href="#m6d9a14a241" y="240.897901"/>
     <use style="fill:#1f77b4;stroke:#1f77b4;" x="55.748979" xlink:href="#m6d9a14a241" y="57.479449"/>
     <use style="fill:#1f77b4;stroke:#1f77b4;" x="60.760494" xlink:href="#m6d9a14a241" y="295.579429"/>
     <use style="fill:#1f77b4;stroke:#1f77b4;" x="55.878758" xlink:href="#m6d9a14a241" y="81.200318"/>
     <use style="fill:#1f77b4;stroke:#1f77b4;" x="58.378707" xlink:href="#m6d9a14a241" y="61.458988"/>
     <use style="fill:#1f77b4;stroke:#1f77b4;" x="57.949665" xlink:href="#m6d9a14a241" y="75.430377"/>
     <use style="fill:#1f77b4;stroke:#1f77b4;" x="56.230735" xlink:href="#m6d9a14a241" y="60.997706"/>
     <use style="fill:#1f77b4;stroke:#1f77b4;" x="54.435574" xlink:href="#m6d9a14a241" y="245.049444"/>
     <use style="fill:#1f77b4;stroke:#1f77b4;" x="57.621406" xlink:href="#m6d9a14a241" y="108.666175"/>
     <use style="fill:#1f77b4;stroke:#1f77b4;" x="59.223145" xlink:href="#m6d9a14a241" y="87.095352"/>
     <use style="fill:#1f77b4;stroke:#1f77b4;" x="83.237668" xlink:href="#m6d9a14a241" y="115.679234"/>
     <use style="fill:#1f77b4;stroke:#1f77b4;" x="56.762077" xlink:href="#m6d9a14a241" y="111.457326"/>
     <use style="fill:#1f77b4;stroke:#1f77b4;" x="54.45537" xlink:href="#m6d9a14a241" y="270.161979"/>
     <use style="fill:#1f77b4;stroke:#1f77b4;" x="56.02798" xlink:href="#m6d9a14a241" y="219.64763"/>
     <use style="fill:#1f77b4;stroke:#1f77b4;" x="81.882687" xlink:href="#m6d9a14a241" y="259.466478"/>
     <use style="fill:#1f77b4;stroke:#1f77b4;" x="56.147811" xlink:href="#m6d9a14a241" y="53.327906"/>
     <use style="fill:#1f77b4;stroke:#1f77b4;" x="76.312071" xlink:href="#m6d9a14a241" y="42.820046"/>
     <use style="fill:#1f77b4;stroke:#1f77b4;" x="54.781659" xlink:href="#m6d9a14a241" y="229.850575"/>
     <use style="fill:#1f77b4;stroke:#1f77b4;" x="54.865967" xlink:href="#m6d9a14a241" y="208.639396"/>
     <use style="fill:#1f77b4;stroke:#1f77b4;" x="84.009083" xlink:href="#m6d9a14a241" y="52.600799"/>
     <use style="fill:#1f77b4;stroke:#1f77b4;" x="62.515281" xlink:href="#m6d9a14a241" y="204.151664"/>
     <use style="fill:#1f77b4;stroke:#1f77b4;" x="58.122094" xlink:href="#m6d9a14a241" y="51.998787"/>
     <use style="fill:#1f77b4;stroke:#1f77b4;" x="58.796086" xlink:href="#m6d9a14a241" y="124.115232"/>
     <use style="fill:#1f77b4;stroke:#1f77b4;" x="57.848229" xlink:href="#m6d9a14a241" y="235.542332"/>
     <use style="fill:#1f77b4;stroke:#1f77b4;" x="54.78786" xlink:href="#m6d9a14a241" y="310.747025"/>
     <use style="fill:#1f77b4;stroke:#1f77b4;" x="57.326479" xlink:href="#m6d9a14a241" y="197.16206"/>
     <use style="fill:#1f77b4;stroke:#1f77b4;" x="56.958528" xlink:href="#m6d9a14a241" y="124.592151"/>
     <use style="fill:#1f77b4;stroke:#1f77b4;" x="56.776782" xlink:href="#m6d9a14a241" y="30.693787"/>
     <use style="fill:#1f77b4;stroke:#1f77b4;" x="57.851224" xlink:href="#m6d9a14a241" y="100.042537"/>
     <use style="fill:#1f77b4;stroke:#1f77b4;" x="54.365366" xlink:href="#m6d9a14a241" y="34.219862"/>
     <use style="fill:#1f77b4;stroke:#1f77b4;" x="455.189961" xlink:href="#m6d9a14a241" y="167.593067"/>
     <use style="fill:#1f77b4;stroke:#1f77b4;" x="134.973028" xlink:href="#m6d9a14a241" y="121.058258"/>
     <use style="fill:#1f77b4;stroke:#1f77b4;" x="79.334123" xlink:href="#m6d9a14a241" y="118.603296"/>
     <use style="fill:#1f77b4;stroke:#1f77b4;" x="64.185711" xlink:href="#m6d9a14a241" y="207.881016"/>
     <use style="fill:#1f77b4;stroke:#1f77b4;" x="55.740025" xlink:href="#m6d9a14a241" y="56.674159"/>
     <use style="fill:#1f77b4;stroke:#1f77b4;" x="56.576844" xlink:href="#m6d9a14a241" y="42.132031"/>
     <use style="fill:#1f77b4;stroke:#1f77b4;" x="75.251896" xlink:href="#m6d9a14a241" y="43.687882"/>
     <use style="fill:#1f77b4;stroke:#1f77b4;" x="55.260176" xlink:href="#m6d9a14a241" y="106.070484"/>
     <use style="fill:#1f77b4;stroke:#1f77b4;" x="100.28153" xlink:href="#m6d9a14a241" y="27.60554"/>
     <use style="fill:#1f77b4;stroke:#1f77b4;" x="56.441988" xlink:href="#m6d9a14a241" y="106.320671"/>
     <use style="fill:#1f77b4;stroke:#1f77b4;" x="67.114203" xlink:href="#m6d9a14a241" y="250.373739"/>
     <use style="fill:#1f77b4;stroke:#1f77b4;" x="62.669959" xlink:href="#m6d9a14a241" y="147.27318"/>
     <use style="fill:#1f77b4;stroke:#1f77b4;" x="71.965073" xlink:href="#m6d9a14a241" y="58.722566"/>
     <use style="fill:#1f77b4;stroke:#1f77b4;" x="55.161035" xlink:href="#m6d9a14a241" y="66.814557"/>
     <use style="fill:#1f77b4;stroke:#1f77b4;" x="55.672212" xlink:href="#m6d9a14a241" y="110.558216"/>
     <use style="fill:#1f77b4;stroke:#1f77b4;" x="54.983059" xlink:href="#m6d9a14a241" y="340.425476"/>
     <use style="fill:#1f77b4;stroke:#1f77b4;" x="55.409591" xlink:href="#m6d9a14a241" y="316.298053"/>
     <use style="fill:#1f77b4;stroke:#1f77b4;" x="56.43611" xlink:href="#m6d9a14a241" y="95.242071"/>
     <use style="fill:#1f77b4;stroke:#1f77b4;" x="61.17726" xlink:href="#m6d9a14a241" y="208.678487"/>
     <use style="fill:#1f77b4;stroke:#1f77b4;" x="59.068389" xlink:href="#m6d9a14a241" y="295.774888"/>
     <use style="fill:#1f77b4;stroke:#1f77b4;" x="63.218631" xlink:href="#m6d9a14a241" y="92.982569"/>
     <use style="fill:#1f77b4;stroke:#1f77b4;" x="58.600697" xlink:href="#m6d9a14a241" y="247.582589"/>
     <use style="fill:#1f77b4;stroke:#1f77b4;" x="55.437077" xlink:href="#m6d9a14a241" y="171.768065"/>
     <use style="fill:#1f77b4;stroke:#1f77b4;" x="54.708006" xlink:href="#m6d9a14a241" y="104.24099"/>
     <use style="fill:#1f77b4;stroke:#1f77b4;" x="93.505253" xlink:href="#m6d9a14a241" y="77.705516"/>
     <use style="fill:#1f77b4;stroke:#1f77b4;" x="55.294115" xlink:href="#m6d9a14a241" y="151.135444"/>
     <use style="fill:#1f77b4;stroke:#1f77b4;" x="54.503586" xlink:href="#m6d9a14a241" y="90.621427"/>
     <use style="fill:#1f77b4;stroke:#1f77b4;" x="66.445135" xlink:href="#m6d9a14a241" y="117.039627"/>
     <use style="fill:#1f77b4;stroke:#1f77b4;" x="61.460342" xlink:href="#m6d9a14a241" y="344.412833"/>
     <use style="fill:#1f77b4;stroke:#1f77b4;" x="71.501886" xlink:href="#m6d9a14a241" y="188.147505"/>
     <use style="fill:#1f77b4;stroke:#1f77b4;" x="54.99838" xlink:href="#m6d9a14a241" y="259.787031"/>
     <use style="fill:#1f77b4;stroke:#1f77b4;" x="64.691989" xlink:href="#m6d9a14a241" y="174.731219"/>
     <use style="fill:#1f77b4;stroke:#1f77b4;" x="60.23954" xlink:href="#m6d9a14a241" y="49.817467"/>
     <use style="fill:#1f77b4;stroke:#1f77b4;" x="55.742438" xlink:href="#m6d9a14a241" y="46.361757"/>
     <use style="fill:#1f77b4;stroke:#1f77b4;" x="56.305562" xlink:href="#m6d9a14a241" y="103.474792"/>
     <use style="fill:#1f77b4;stroke:#1f77b4;" x="58.912328" xlink:href="#m6d9a14a241" y="228.818553"/>
     <use style="fill:#1f77b4;stroke:#1f77b4;" x="103.012391" xlink:href="#m6d9a14a241" y="307.064583"/>
     <use style="fill:#1f77b4;stroke:#1f77b4;" x="55.927364" xlink:href="#m6d9a14a241" y="46.424304"/>
     <use style="fill:#1f77b4;stroke:#1f77b4;" x="55.413547" xlink:href="#m6d9a14a241" y="82.044699"/>
     <use style="fill:#1f77b4;stroke:#1f77b4;" x="115.375317" xlink:href="#m6d9a14a241" y="161.455663"/>
     <use style="fill:#1f77b4;stroke:#1f77b4;" x="55.427006" xlink:href="#m6d9a14a241" y="82.849989"/>
     <use style="fill:#1f77b4;stroke:#1f77b4;" x="56.66367" xlink:href="#m6d9a14a241" y="112.442438"/>
     <use style="fill:#1f77b4;stroke:#1f77b4;" x="64.610014" xlink:href="#m6d9a14a241" y="115.030311"/>
     <use style="fill:#1f77b4;stroke:#1f77b4;" x="87.141853" xlink:href="#m6d9a14a241" y="112.942812"/>
     <use style="fill:#1f77b4;stroke:#1f77b4;" x="68.164225" xlink:href="#m6d9a14a241" y="82.646712"/>
     <use style="fill:#1f77b4;stroke:#1f77b4;" x="58.099182" xlink:href="#m6d9a14a241" y="62.827199"/>
     <use style="fill:#1f77b4;stroke:#1f77b4;" x="55.679872" xlink:href="#m6d9a14a241" y="57.760909"/>
     <use style="fill:#1f77b4;stroke:#1f77b4;" x="54.544516" xlink:href="#m6d9a14a241" y="75.774384"/>
     <use style="fill:#1f77b4;stroke:#1f77b4;" x="62.299619" xlink:href="#m6d9a14a241" y="106.781953"/>
     <use style="fill:#1f77b4;stroke:#1f77b4;" x="57.455662" xlink:href="#m6d9a14a241" y="311.888504"/>
     <use style="fill:#1f77b4;stroke:#1f77b4;" x="54.328409" xlink:href="#m6d9a14a241" y="161.103838"/>
     <use style="fill:#1f77b4;stroke:#1f77b4;" x="64.222323" xlink:href="#m6d9a14a241" y="104.428631"/>
     <use style="fill:#1f77b4;stroke:#1f77b4;" x="58.685801" xlink:href="#m6d9a14a241" y="180.383885"/>
     <use style="fill:#1f77b4;stroke:#1f77b4;" x="57.921328" xlink:href="#m6d9a14a241" y="94.851154"/>
     <use style="fill:#1f77b4;stroke:#1f77b4;" x="56.474979" xlink:href="#m6d9a14a241" y="340.613116"/>
     <use style="fill:#1f77b4;stroke:#1f77b4;" x="55.900313" xlink:href="#m6d9a14a241" y="48.175614"/>
     <use style="fill:#1f77b4;stroke:#1f77b4;" x="56.22329" xlink:href="#m6d9a14a241" y="89.683226"/>
     <use style="fill:#1f77b4;stroke:#1f77b4;" x="54.98183" xlink:href="#m6d9a14a241" y="64.171955"/>
     <use style="fill:#1f77b4;stroke:#1f77b4;" x="57.548885" xlink:href="#m6d9a14a241" y="296.90073"/>
     <use style="fill:#1f77b4;stroke:#1f77b4;" x="70.142754" xlink:href="#m6d9a14a241" y="287.675079"/>
     <use style="fill:#1f77b4;stroke:#1f77b4;" x="68.861077" xlink:href="#m6d9a14a241" y="40.599635"/>
     <use style="fill:#1f77b4;stroke:#1f77b4;" x="61.614369" xlink:href="#m6d9a14a241" y="107.407421"/>
     <use style="fill:#1f77b4;stroke:#1f77b4;" x="69.527162" xlink:href="#m6d9a14a241" y="215.613362"/>
     <use style="fill:#1f77b4;stroke:#1f77b4;" x="54.665466" xlink:href="#m6d9a14a241" y="363.716335"/>
     <use style="fill:#1f77b4;stroke:#1f77b4;" x="57.517224" xlink:href="#m6d9a14a241" y="41.045281"/>
     <use style="fill:#1f77b4;stroke:#1f77b4;" x="56.984127" xlink:href="#m6d9a14a241" y="34.65769"/>
     <use style="fill:#1f77b4;stroke:#1f77b4;" x="61.230371" xlink:href="#m6d9a14a241" y="93.748767"/>
     <use style="fill:#1f77b4;stroke:#1f77b4;" x="62.623948" xlink:href="#m6d9a14a241" y="60.466058"/>
     <use style="fill:#1f77b4;stroke:#1f77b4;" x="68.027523" xlink:href="#m6d9a14a241" y="262.828368"/>
     <use style="fill:#1f77b4;stroke:#1f77b4;" x="77.750668" xlink:href="#m6d9a14a241" y="121.324081"/>
     <use style="fill:#1f77b4;stroke:#1f77b4;" x="56.31503" xlink:href="#m6d9a14a241" y="216.676658"/>
     <use style="fill:#1f77b4;stroke:#1f77b4;" x="54.637859" xlink:href="#m6d9a14a241" y="127.555305"/>
     <use style="fill:#1f77b4;stroke:#1f77b4;" x="57.966785" xlink:href="#m6d9a14a241" y="95.468803"/>
     <use style="fill:#1f77b4;stroke:#1f77b4;" x="79.949779" xlink:href="#m6d9a14a241" y="112.246979"/>
     <use style="fill:#1f77b4;stroke:#1f77b4;" x="64.788976" xlink:href="#m6d9a14a241" y="270.451258"/>
     <use style="fill:#1f77b4;stroke:#1f77b4;" x="76.200977" xlink:href="#m6d9a14a241" y="52.452251"/>
     <use style="fill:#1f77b4;stroke:#1f77b4;" x="162.98971" xlink:href="#m6d9a14a241" y="61.701357"/>
     <use style="fill:#1f77b4;stroke:#1f77b4;" x="55.501143" xlink:href="#m6d9a14a241" y="76.227848"/>
     <use style="fill:#1f77b4;stroke:#1f77b4;" x="63.674802" xlink:href="#m6d9a14a241" y="96.844833"/>
     <use style="fill:#1f77b4;stroke:#1f77b4;" x="85.042241" xlink:href="#m6d9a14a241" y="92.920022"/>
     <use style="fill:#1f77b4;stroke:#1f77b4;" x="55.707256" xlink:href="#m6d9a14a241" y="99.385796"/>
     <use style="fill:#1f77b4;stroke:#1f77b4;" x="62.276397" xlink:href="#m6d9a14a241" y="183.229764"/>
     <use style="fill:#1f77b4;stroke:#1f77b4;" x="58.497517" xlink:href="#m6d9a14a241" y="342.051692"/>
     <use style="fill:#1f77b4;stroke:#1f77b4;" x="58.701562" xlink:href="#m6d9a14a241" y="333.428054"/>
    </g>
   </g>
   <g id="matplotlib.axis_1">
    <g id="xtick_1">
     <g id="line2d_1">
      <defs>
       <path d="M 0 0 
L 0 3.5 
" id="md3d5b1a66d" style="stroke:#000000;stroke-width:0.8;"/>
      </defs>
      <g>
       <use style="stroke:#000000;stroke-width:0.8;" x="54.256347" xlink:href="#md3d5b1a66d" y="380.521875"/>
      </g>
     </g>
     <g id="text_1">
      <!-- 0 -->
      <g transform="translate(51.075097 395.120313)scale(0.1 -0.1)">
       <defs>
        <path d="M 2034 4250 
Q 1547 4250 1301 3770 
Q 1056 3291 1056 2328 
Q 1056 1369 1301 889 
Q 1547 409 2034 409 
Q 2525 409 2770 889 
Q 3016 1369 3016 2328 
Q 3016 3291 2770 3770 
Q 2525 4250 2034 4250 
z
M 2034 4750 
Q 2819 4750 3233 4129 
Q 3647 3509 3647 2328 
Q 3647 1150 3233 529 
Q 2819 -91 2034 -91 
Q 1250 -91 836 529 
Q 422 1150 422 2328 
Q 422 3509 836 4129 
Q 1250 4750 2034 4750 
z
" id="DejaVuSans-30" transform="scale(0.015625)"/>
       </defs>
       <use xlink:href="#DejaVuSans-30"/>
      </g>
     </g>
    </g>
    <g id="xtick_2">
     <g id="line2d_2">
      <g>
       <use style="stroke:#000000;stroke-width:0.8;" x="126.470853" xlink:href="#md3d5b1a66d" y="380.521875"/>
      </g>
     </g>
     <g id="text_2">
      <!-- 200 -->
      <g transform="translate(116.927103 395.120313)scale(0.1 -0.1)">
       <defs>
        <path d="M 1228 531 
L 3431 531 
L 3431 0 
L 469 0 
L 469 531 
Q 828 903 1448 1529 
Q 2069 2156 2228 2338 
Q 2531 2678 2651 2914 
Q 2772 3150 2772 3378 
Q 2772 3750 2511 3984 
Q 2250 4219 1831 4219 
Q 1534 4219 1204 4116 
Q 875 4013 500 3803 
L 500 4441 
Q 881 4594 1212 4672 
Q 1544 4750 1819 4750 
Q 2544 4750 2975 4387 
Q 3406 4025 3406 3419 
Q 3406 3131 3298 2873 
Q 3191 2616 2906 2266 
Q 2828 2175 2409 1742 
Q 1991 1309 1228 531 
z
" id="DejaVuSans-32" transform="scale(0.015625)"/>
       </defs>
       <use xlink:href="#DejaVuSans-32"/>
       <use x="63.623047" xlink:href="#DejaVuSans-30"/>
       <use x="127.246094" xlink:href="#DejaVuSans-30"/>
      </g>
     </g>
    </g>
    <g id="xtick_3">
     <g id="line2d_3">
      <g>
       <use style="stroke:#000000;stroke-width:0.8;" x="198.685359" xlink:href="#md3d5b1a66d" y="380.521875"/>
      </g>
     </g>
     <g id="text_3">
      <!-- 400 -->
      <g transform="translate(189.141609 395.120313)scale(0.1 -0.1)">
       <defs>
        <path d="M 2419 4116 
L 825 1625 
L 2419 1625 
L 2419 4116 
z
M 2253 4666 
L 3047 4666 
L 3047 1625 
L 3713 1625 
L 3713 1100 
L 3047 1100 
L 3047 0 
L 2419 0 
L 2419 1100 
L 313 1100 
L 313 1709 
L 2253 4666 
z
" id="DejaVuSans-34" transform="scale(0.015625)"/>
       </defs>
       <use xlink:href="#DejaVuSans-34"/>
       <use x="63.623047" xlink:href="#DejaVuSans-30"/>
       <use x="127.246094" xlink:href="#DejaVuSans-30"/>
      </g>
     </g>
    </g>
    <g id="xtick_4">
     <g id="line2d_4">
      <g>
       <use style="stroke:#000000;stroke-width:0.8;" x="270.899866" xlink:href="#md3d5b1a66d" y="380.521875"/>
      </g>
     </g>
     <g id="text_4">
      <!-- 600 -->
      <g transform="translate(261.356116 395.120313)scale(0.1 -0.1)">
       <defs>
        <path d="M 2113 2584 
Q 1688 2584 1439 2293 
Q 1191 2003 1191 1497 
Q 1191 994 1439 701 
Q 1688 409 2113 409 
Q 2538 409 2786 701 
Q 3034 994 3034 1497 
Q 3034 2003 2786 2293 
Q 2538 2584 2113 2584 
z
M 3366 4563 
L 3366 3988 
Q 3128 4100 2886 4159 
Q 2644 4219 2406 4219 
Q 1781 4219 1451 3797 
Q 1122 3375 1075 2522 
Q 1259 2794 1537 2939 
Q 1816 3084 2150 3084 
Q 2853 3084 3261 2657 
Q 3669 2231 3669 1497 
Q 3669 778 3244 343 
Q 2819 -91 2113 -91 
Q 1303 -91 875 529 
Q 447 1150 447 2328 
Q 447 3434 972 4092 
Q 1497 4750 2381 4750 
Q 2619 4750 2861 4703 
Q 3103 4656 3366 4563 
z
" id="DejaVuSans-36" transform="scale(0.015625)"/>
       </defs>
       <use xlink:href="#DejaVuSans-36"/>
       <use x="63.623047" xlink:href="#DejaVuSans-30"/>
       <use x="127.246094" xlink:href="#DejaVuSans-30"/>
      </g>
     </g>
    </g>
    <g id="xtick_5">
     <g id="line2d_5">
      <g>
       <use style="stroke:#000000;stroke-width:0.8;" x="343.114372" xlink:href="#md3d5b1a66d" y="380.521875"/>
      </g>
     </g>
     <g id="text_5">
      <!-- 800 -->
      <g transform="translate(333.570622 395.120313)scale(0.1 -0.1)">
       <defs>
        <path d="M 2034 2216 
Q 1584 2216 1326 1975 
Q 1069 1734 1069 1313 
Q 1069 891 1326 650 
Q 1584 409 2034 409 
Q 2484 409 2743 651 
Q 3003 894 3003 1313 
Q 3003 1734 2745 1975 
Q 2488 2216 2034 2216 
z
M 1403 2484 
Q 997 2584 770 2862 
Q 544 3141 544 3541 
Q 544 4100 942 4425 
Q 1341 4750 2034 4750 
Q 2731 4750 3128 4425 
Q 3525 4100 3525 3541 
Q 3525 3141 3298 2862 
Q 3072 2584 2669 2484 
Q 3125 2378 3379 2068 
Q 3634 1759 3634 1313 
Q 3634 634 3220 271 
Q 2806 -91 2034 -91 
Q 1263 -91 848 271 
Q 434 634 434 1313 
Q 434 1759 690 2068 
Q 947 2378 1403 2484 
z
M 1172 3481 
Q 1172 3119 1398 2916 
Q 1625 2713 2034 2713 
Q 2441 2713 2670 2916 
Q 2900 3119 2900 3481 
Q 2900 3844 2670 4047 
Q 2441 4250 2034 4250 
Q 1625 4250 1398 4047 
Q 1172 3844 1172 3481 
z
" id="DejaVuSans-38" transform="scale(0.015625)"/>
       </defs>
       <use xlink:href="#DejaVuSans-38"/>
       <use x="63.623047" xlink:href="#DejaVuSans-30"/>
       <use x="127.246094" xlink:href="#DejaVuSans-30"/>
      </g>
     </g>
    </g>
    <g id="xtick_6">
     <g id="line2d_6">
      <g>
       <use style="stroke:#000000;stroke-width:0.8;" x="415.328879" xlink:href="#md3d5b1a66d" y="380.521875"/>
      </g>
     </g>
     <g id="text_6">
      <!-- 1000 -->
      <g transform="translate(402.603879 395.120313)scale(0.1 -0.1)">
       <defs>
        <path d="M 794 531 
L 1825 531 
L 1825 4091 
L 703 3866 
L 703 4441 
L 1819 4666 
L 2450 4666 
L 2450 531 
L 3481 531 
L 3481 0 
L 794 0 
L 794 531 
z
" id="DejaVuSans-31" transform="scale(0.015625)"/>
       </defs>
       <use xlink:href="#DejaVuSans-31"/>
       <use x="63.623047" xlink:href="#DejaVuSans-30"/>
       <use x="127.246094" xlink:href="#DejaVuSans-30"/>
       <use x="190.869141" xlink:href="#DejaVuSans-30"/>
      </g>
     </g>
    </g>
    <g id="xtick_7">
     <g id="line2d_7">
      <g>
       <use style="stroke:#000000;stroke-width:0.8;" x="487.543385" xlink:href="#md3d5b1a66d" y="380.521875"/>
      </g>
     </g>
     <g id="text_7">
      <!-- 1200 -->
      <g transform="translate(474.818385 395.120313)scale(0.1 -0.1)">
       <use xlink:href="#DejaVuSans-31"/>
       <use x="63.623047" xlink:href="#DejaVuSans-32"/>
       <use x="127.246094" xlink:href="#DejaVuSans-30"/>
       <use x="190.869141" xlink:href="#DejaVuSans-30"/>
      </g>
     </g>
    </g>
   </g>
   <g id="matplotlib.axis_2">
    <g id="ytick_1">
     <g id="line2d_8">
      <defs>
       <path d="M 0 0 
L -3.5 0 
" id="m1628ce9c84" style="stroke:#000000;stroke-width:0.8;"/>
      </defs>
      <g>
       <use style="stroke:#000000;stroke-width:0.8;" x="30.525" xlink:href="#m1628ce9c84" y="360.690634"/>
      </g>
     </g>
     <g id="text_8">
      <!-- 40 -->
      <g transform="translate(10.8 364.489853)scale(0.1 -0.1)">
       <use xlink:href="#DejaVuSans-34"/>
       <use x="63.623047" xlink:href="#DejaVuSans-30"/>
      </g>
     </g>
    </g>
    <g id="ytick_2">
     <g id="line2d_9">
      <g>
       <use style="stroke:#000000;stroke-width:0.8;" x="30.525" xlink:href="#m1628ce9c84" y="282.507151"/>
      </g>
     </g>
     <g id="text_9">
      <!-- 50 -->
      <g transform="translate(10.8 286.30637)scale(0.1 -0.1)">
       <defs>
        <path d="M 691 4666 
L 3169 4666 
L 3169 4134 
L 1269 4134 
L 1269 2991 
Q 1406 3038 1543 3061 
Q 1681 3084 1819 3084 
Q 2600 3084 3056 2656 
Q 3513 2228 3513 1497 
Q 3513 744 3044 326 
Q 2575 -91 1722 -91 
Q 1428 -91 1123 -41 
Q 819 9 494 109 
L 494 744 
Q 775 591 1075 516 
Q 1375 441 1709 441 
Q 2250 441 2565 725 
Q 2881 1009 2881 1497 
Q 2881 1984 2565 2268 
Q 2250 2553 1709 2553 
Q 1456 2553 1204 2497 
Q 953 2441 691 2322 
L 691 4666 
z
" id="DejaVuSans-35" transform="scale(0.015625)"/>
       </defs>
       <use xlink:href="#DejaVuSans-35"/>
       <use x="63.623047" xlink:href="#DejaVuSans-30"/>
      </g>
     </g>
    </g>
    <g id="ytick_3">
     <g id="line2d_10">
      <g>
       <use style="stroke:#000000;stroke-width:0.8;" x="30.525" xlink:href="#m1628ce9c84" y="204.323667"/>
      </g>
     </g>
     <g id="text_10">
      <!-- 60 -->
      <g transform="translate(10.8 208.122886)scale(0.1 -0.1)">
       <use xlink:href="#DejaVuSans-36"/>
       <use x="63.623047" xlink:href="#DejaVuSans-30"/>
      </g>
     </g>
    </g>
    <g id="ytick_4">
     <g id="line2d_11">
      <g>
       <use style="stroke:#000000;stroke-width:0.8;" x="30.525" xlink:href="#m1628ce9c84" y="126.140184"/>
      </g>
     </g>
     <g id="text_11">
      <!-- 70 -->
      <g transform="translate(10.8 129.939403)scale(0.1 -0.1)">
       <defs>
        <path d="M 525 4666 
L 3525 4666 
L 3525 4397 
L 1831 0 
L 1172 0 
L 2766 4134 
L 525 4134 
L 525 4666 
z
" id="DejaVuSans-37" transform="scale(0.015625)"/>
       </defs>
       <use xlink:href="#DejaVuSans-37"/>
       <use x="63.623047" xlink:href="#DejaVuSans-30"/>
      </g>
     </g>
    </g>
    <g id="ytick_5">
     <g id="line2d_12">
      <g>
       <use style="stroke:#000000;stroke-width:0.8;" x="30.525" xlink:href="#m1628ce9c84" y="47.956701"/>
      </g>
     </g>
     <g id="text_12">
      <!-- 80 -->
      <g transform="translate(10.8 51.755919)scale(0.1 -0.1)">
       <use xlink:href="#DejaVuSans-38"/>
       <use x="63.623047" xlink:href="#DejaVuSans-30"/>
      </g>
     </g>
    </g>
   </g>
   <g id="patch_3">
    <path d="M 30.525 380.521875 
L 30.525 10.8 
" style="fill:none;stroke:#000000;stroke-linecap:square;stroke-linejoin:miter;stroke-width:0.8;"/>
   </g>
   <g id="patch_4">
    <path d="M 554.2 380.521875 
L 554.2 10.8 
" style="fill:none;stroke:#000000;stroke-linecap:square;stroke-linejoin:miter;stroke-width:0.8;"/>
   </g>
   <g id="patch_5">
    <path d="M 30.525 380.521875 
L 554.2 380.521875 
" style="fill:none;stroke:#000000;stroke-linecap:square;stroke-linejoin:miter;stroke-width:0.8;"/>
   </g>
   <g id="patch_6">
    <path d="M 30.525 10.8 
L 554.2 10.8 
" style="fill:none;stroke:#000000;stroke-linecap:square;stroke-linejoin:miter;stroke-width:0.8;"/>
   </g>
  </g>
 </g>
 <defs>
  <clipPath id="pda27bc9d9a">
   <rect height="369.721875" width="523.675" x="30.525" y="10.8"/>
  </clipPath>
 </defs>
</svg>
